<svg width="193" height="84" viewBox="0 0 193 84" fill="none" xmlns="http://www.w3.org/2000/svg">
<path d="M17.4497 18.098C18.25 19.0799 19.75 19.0799 20.5503 18.098L26.7322 10.5136C27.7971 9.20709 26.8675 7.25 25.1819 7.25H12.8181C11.1325 7.25 10.2029 9.20709 11.2678 10.5136L17.4497 18.098Z" fill="#F5AC00"/>
<path d="M6.03125 21.5H32.3438V28.5938H23.4688V59.9375H32.3438V67H6.03125V59.9375H14.6875V28.5938H6.03125V21.5ZM41.9375 49.8438C41.9375 47.2812 42.2292 44.9375 42.8125 42.8125C43.4167 40.6875 44.2917 38.8646 45.4375 37.3438C46.5833 35.8229 47.9688 34.6458 49.5938 33.8125C51.2396 32.9792 53.1146 32.5625 55.2188 32.5625C56.9896 32.5625 58.5417 32.8854 59.875 33.5312C61.2292 34.1562 62.4271 35.0521 63.4688 36.2188V19H72.1875V67H64.3438L63.9062 63.4688C62.8438 64.7812 61.5938 65.8021 60.1562 66.5312C58.7188 67.2604 57.0521 67.625 55.1562 67.625C53.0938 67.625 51.2396 67.1979 49.5938 66.3438C47.9688 65.4688 46.5938 64.2708 45.4688 62.75C44.3229 61.2292 43.4479 59.4271 42.8438 57.3438C42.2396 55.2396 41.9375 52.9583 41.9375 50.5V49.8438ZM50.625 50.5C50.625 51.9167 50.7396 53.2396 50.9688 54.4688C51.2188 55.6771 51.6146 56.7292 52.1562 57.625C52.6979 58.5417 53.3958 59.2604 54.25 59.7812C55.1042 60.3021 56.1458 60.5625 57.375 60.5625C58.875 60.5625 60.1146 60.2396 61.0938 59.5938C62.0938 58.9479 62.8854 58.0625 63.4688 56.9375V43.25C62.8854 42.1042 62.1042 41.2188 61.125 40.5938C60.1458 39.9479 58.9167 39.625 57.4375 39.625C56.2083 39.625 55.1562 39.8958 54.2812 40.4375C53.4271 40.9583 52.7292 41.6771 52.1875 42.5938C51.6458 43.5312 51.25 44.625 51 45.875C50.75 47.1042 50.625 48.4271 50.625 49.8438V50.5ZM97.6875 67.625C95.0833 67.625 92.7188 67.1979 90.5938 66.3438C88.4688 65.4896 86.6458 64.3229 85.125 62.8438C83.6042 61.3854 82.4271 59.6667 81.5938 57.6875C80.7812 55.6875 80.375 53.5521 80.375 51.2812V50.0312C80.375 47.4479 80.7812 45.0938 81.5938 42.9688C82.4062 40.8229 83.5417 38.9792 85 37.4375C86.4583 35.8958 88.1875 34.6979 90.1875 33.8438C92.1875 32.9896 94.3646 32.5625 96.7188 32.5625C99.1562 32.5625 101.323 32.9688 103.219 33.7812C105.135 34.5729 106.76 35.6979 108.094 37.1562C109.406 38.6146 110.406 40.375 111.094 42.4375C111.781 44.4792 112.125 46.7396 112.125 49.2188V52.9062H89.1875V53C89.4792 54.3542 89.8542 55.4479 90.3125 56.2812C90.7708 57.0938 91.3854 57.8333 92.1562 58.5C92.9479 59.1875 93.8542 59.7188 94.875 60.0938C95.8958 60.4688 97.0104 60.6562 98.2188 60.6562C99.9271 60.6562 101.583 60.3333 103.188 59.6875C104.792 59.0417 106.094 58.0729 107.094 56.7812L111.438 61.4688C110.333 63.0312 108.583 64.4479 106.188 65.7188C103.792 66.9896 100.958 67.625 97.6875 67.625ZM96.6562 39.5938C95.6771 39.5938 94.7812 39.7708 93.9688 40.125C93.1562 40.4583 92.4479 40.9479 91.8438 41.5938C91.2188 42.2396 90.6979 43.0104 90.2812 43.9062C89.8646 44.8021 89.5521 45.8021 89.3438 46.9062H103.594V46.2188C103.594 45.3021 103.427 44.4375 103.094 43.625C102.76 42.8125 102.302 42.1042 101.719 41.5C101.135 40.9167 100.417 40.4583 99.5625 40.125C98.7292 39.7708 97.7604 39.5938 96.6562 39.5938ZM140.844 67C140.635 66.5833 140.458 66.1042 140.312 65.5625C140.167 65.0208 140.042 64.4479 139.938 63.8438C139.458 64.3646 138.906 64.8542 138.281 65.3125C137.656 65.7708 136.969 66.1667 136.219 66.5C135.448 66.8542 134.604 67.125 133.688 67.3125C132.771 67.5208 131.781 67.625 130.719 67.625C128.99 67.625 127.396 67.375 125.938 66.875C124.5 66.375 123.26 65.6771 122.219 64.7812C121.177 63.8854 120.365 62.8229 119.781 61.5938C119.198 60.3438 118.906 58.9896 118.906 57.5312C118.906 55.6562 119.271 54 120 52.5625C120.729 51.1042 121.823 49.9062 123.281 48.9688C124.594 48.1146 126.208 47.4688 128.125 47.0312C130.062 46.5729 132.281 46.3438 134.781 46.3438H139.625V44.3438C139.625 43.5521 139.5 42.8438 139.25 42.2188C139 41.5729 138.625 41.0208 138.125 40.5625C137.604 40.0833 136.948 39.7188 136.156 39.4688C135.385 39.1979 134.479 39.0625 133.438 39.0625C132.521 39.0625 131.729 39.1771 131.062 39.4062C130.396 39.6146 129.854 39.9167 129.438 40.3125C129.062 40.6667 128.781 41.0938 128.594 41.5938C128.427 42.0938 128.344 42.6458 128.344 43.25H119.656C119.656 41.8125 119.969 40.4479 120.594 39.1562C121.24 37.8646 122.177 36.7292 123.406 35.75C124.615 34.7708 126.094 34 127.844 33.4375C129.615 32.8542 131.635 32.5625 133.906 32.5625C135.948 32.5625 137.844 32.8125 139.594 33.3125C141.365 33.8125 142.896 34.5521 144.188 35.5312C145.479 36.5104 146.49 37.75 147.219 39.25C147.948 40.7292 148.312 42.4479 148.312 44.4062V58.9062C148.312 60.7188 148.427 62.2188 148.656 63.4062C148.885 64.5938 149.219 65.6146 149.656 66.4688V67H140.844ZM132.562 60.9062C133.438 60.9062 134.25 60.8021 135 60.5938C135.75 60.3854 136.427 60.1146 137.031 59.7812C137.635 59.4479 138.156 59.0729 138.594 58.6562C139.031 58.2188 139.375 57.7812 139.625 57.3438V51.5312H135.188C133.833 51.5312 132.677 51.6667 131.719 51.9375C130.76 52.1875 129.979 52.5417 129.375 53C128.771 53.4792 128.323 54.0521 128.031 54.7188C127.74 55.3646 127.594 56.0729 127.594 56.8438C127.594 57.4479 127.698 58.0104 127.906 58.5312C128.135 59.0312 128.458 59.4583 128.875 59.8125C129.292 60.1458 129.802 60.4167 130.406 60.625C131.031 60.8125 131.75 60.9062 132.562 60.9062ZM179.969 57.7188C179.969 57.1979 179.844 56.7396 179.594 56.3438C179.365 55.9479 178.948 55.5729 178.344 55.2188C177.719 54.8854 176.896 54.5729 175.875 54.2812C174.854 53.9896 173.562 53.6979 172 53.4062C170.021 53.0104 168.208 52.5208 166.562 51.9375C164.938 51.3333 163.542 50.6042 162.375 49.75C161.208 48.9167 160.292 47.9479 159.625 46.8438C158.979 45.7396 158.656 44.4688 158.656 43.0312C158.656 41.6354 158.99 40.3021 159.656 39.0312C160.323 37.7604 161.281 36.6458 162.531 35.6875C163.781 34.7292 165.302 33.9688 167.094 33.4062C168.885 32.8438 170.906 32.5625 173.156 32.5625C175.51 32.5625 177.625 32.8438 179.5 33.4062C181.375 33.9479 182.969 34.6979 184.281 35.6562C185.573 36.6354 186.562 37.7917 187.25 39.125C187.938 40.4583 188.281 41.9062 188.281 43.4688H179.594C179.594 42.9062 179.5 42.3854 179.312 41.9062C179.125 41.4062 178.844 40.9583 178.469 40.5625C177.948 40.0417 177.24 39.625 176.344 39.3125C175.469 39 174.406 38.8438 173.156 38.8438C172.094 38.8438 171.167 38.9479 170.375 39.1562C169.583 39.3646 168.938 39.6562 168.438 40.0312C167.979 40.3646 167.625 40.7604 167.375 41.2188C167.146 41.6562 167.031 42.125 167.031 42.625C167.031 43.125 167.135 43.5938 167.344 44.0312C167.552 44.4479 167.927 44.8229 168.469 45.1562C168.99 45.5104 169.708 45.8333 170.625 46.125C171.542 46.3958 172.708 46.6354 174.125 46.8438C176.167 47.1771 178.062 47.6042 179.812 48.125C181.562 48.6458 183.073 49.3125 184.344 50.125C185.615 50.9583 186.604 51.9688 187.312 53.1562C188.042 54.3229 188.406 55.7188 188.406 57.3438C188.406 58.8438 188.042 60.2292 187.312 61.5C186.604 62.75 185.594 63.8333 184.281 64.75C182.948 65.6667 181.344 66.3854 179.469 66.9062C177.594 67.4062 175.5 67.6562 173.188 67.6562C170.646 67.6562 168.396 67.3229 166.438 66.6562C164.5 65.9896 162.875 65.1146 161.562 64.0312C160.25 62.9688 159.25 61.7604 158.562 60.4062C157.896 59.0312 157.562 57.6562 157.562 56.2812H165.844C165.906 57.1979 166.156 57.9896 166.594 58.6562C167.031 59.3021 167.594 59.8229 168.281 60.2188C168.969 60.6354 169.75 60.9375 170.625 61.125C171.521 61.3125 172.438 61.4062 173.375 61.4062C174.5 61.4062 175.479 61.3125 176.312 61.125C177.167 60.9167 177.865 60.6458 178.406 60.3125C178.927 59.9792 179.312 59.5938 179.562 59.1562C179.833 58.7188 179.969 58.2396 179.969 57.7188Z" fill="white"/>
</svg>
