<svg width="305" height="300" viewBox="0 0 305 300" fill="none" xmlns="http://www.w3.org/2000/svg">
<rect width="305" height="300" rx="50" fill="#002555"/>
<g clip-path="url(#clip0_103_68)">
<path d="M164.892 80.4452C164.892 68.1097 154.154 58 141.052 58C127.95 58 117 68.1097 117 80.4452C117 92.7808 127.738 103.09 141.052 103.09C154.366 103.09 164.892 92.9807 164.892 80.4452Z" fill="#F5AC00"/>
<path d="M261.101 227.232C252.295 227.232 243.922 223.393 237.905 216.316V164.555C243.922 157.477 252.295 153.639 261.101 153.639C275.491 153.639 283.865 164.761 283.865 190.032C283.865 215.303 275.491 227.232 261.101 227.232ZM564.761 152.219C577.432 152.219 583.873 161.922 583.873 178.503H544.786C545.862 162.529 552.735 152.219 564.761 152.219ZM718.736 215.103C709.287 224 702.413 228.245 691.676 228.245C672.564 228.245 661.607 211.464 661.607 190.439C661.607 169.413 668.912 151.619 688.667 151.619C705.202 151.619 712.507 159.503 714.22 179.523H724.526V151.013C714.864 144.135 699.617 139.084 685.871 139.084C653.445 139.084 629.606 159.503 629.606 189.632C629.606 222.587 650.649 242 686.515 242C702.838 242 716.584 235.122 727.102 222.387L718.729 215.11L718.736 215.103ZM572.491 228.245C554.88 228.245 544.362 214.696 544.574 189.625H614.366C614.366 158.283 596.975 139.077 566.694 139.077C536.413 139.077 513.005 159.296 513.005 190.032C513.005 220.768 535.337 242.2 566.906 242.2C588.813 242.2 601.696 235.322 614.578 219.961L606.205 212.684C595.035 224.413 585.586 228.252 572.491 228.252M460.172 139.077C447.502 139.077 436.976 143.929 426.026 154.038C420.229 144.129 409.923 139.077 396.601 139.077C384.363 139.077 373.625 143.729 364.819 151.613V140.697H321.436V152.019H335.607V240.174H366.1V164.355C372.117 157.477 379.415 153.639 387.576 153.639C396.813 153.639 401.535 159.097 401.535 169.406V240.174H431.603V177.497C431.603 173.252 431.172 169.406 430.527 165.768C436.969 158.283 445.342 153.639 453.079 153.639C462.316 153.639 467.038 159.097 467.038 169.406V240.174H497.106V173.045C497.106 151.613 483.36 139.077 460.172 139.077ZM267.754 139.077C255.728 139.077 246.279 143.122 237.905 150.4V114.206H190.877V125.529H207.199V228.844H190.877V240.167H236.617V229.451C245.422 237.335 255.084 241.786 267.754 241.786C297.604 241.786 316.503 223.187 316.503 190.225C316.503 157.264 297.604 139.07 267.754 139.07M171.546 125.529V114.206H124.305V240.167H171.553V228.844H155.018V125.529H171.553H171.546Z" fill="white"/>
</g>
<rect width="305" height="300" rx="50" fill="#002555"/>
<path d="M148.781 91.3829C150.709 93.7357 154.291 93.7357 156.22 91.3829L187.748 52.9187C190.342 49.7543 188.105 44.9802 184.028 44.9802H120.972C116.895 44.9802 114.658 49.7543 117.252 52.9187L148.781 91.3829Z" fill="#F5AC00"/>
<path d="M106.81 107.443H201.957V133.254H169.865V247.302H201.957V273H106.81V247.302H138.111V133.254H106.81V107.443Z" fill="white"/>
<defs>
<clipPath id="clip0_103_68">
<rect width="71" height="184" fill="white" transform="translate(117 58)"/>
</clipPath>
</defs>
</svg>
