<svg width="591" height="189" viewBox="0 0 591 189" fill="none" xmlns="http://www.w3.org/2000/svg">
<g clip-path="url(#clip0_103_10204)">
<path d="M46.392 23.031C46.392 10.3735 35.9905 0 23.2988 0C10.6071 0 0 10.3735 0 23.031C0 35.6885 10.4015 46.2671 23.2988 46.2671C36.1961 46.2671 46.392 35.8936 46.392 23.031Z" fill="#F5AC00"/>
<path d="M139.587 173.648C131.058 173.648 122.946 169.71 117.118 162.448V109.335C122.946 102.073 131.058 98.1346 139.587 98.1346C153.527 98.1346 161.638 109.548 161.638 135.478C161.638 161.408 153.527 173.648 139.587 173.648ZM433.737 96.6779C446.01 96.6779 452.249 106.634 452.249 123.648H414.387C415.429 107.257 422.087 96.6779 433.737 96.6779ZM582.889 161.203C573.735 170.332 567.077 174.688 556.676 174.688C538.163 174.688 527.549 157.469 527.549 135.895C527.549 114.321 534.625 96.0628 553.762 96.0628C569.779 96.0628 576.855 104.152 578.514 124.694H588.497V95.4405C579.138 88.3834 564.369 83.2002 551.053 83.2002C519.643 83.2002 496.55 104.152 496.55 135.068C496.55 168.882 516.934 188.802 551.677 188.802C567.488 188.802 580.804 181.745 590.993 168.677L582.882 161.21L582.889 161.203ZM441.224 174.688C424.165 174.688 413.976 160.786 414.181 135.061H481.788C481.788 102.901 464.941 83.1931 435.608 83.1931C406.276 83.1931 383.601 103.94 383.601 135.478C383.601 167.016 405.233 189.007 435.814 189.007C457.035 189.007 469.514 181.95 481.993 166.188L473.882 158.721C463.062 170.756 453.908 174.695 441.224 174.695M332.423 83.1931C320.149 83.1931 309.954 88.1712 299.346 98.5448C293.731 88.3763 283.748 83.1931 270.843 83.1931C258.988 83.1931 248.587 87.9662 240.057 96.0557V84.8548H198.033V96.4729H211.76V186.928H241.298V109.13C247.126 102.073 254.195 98.1346 262.101 98.1346C271.049 98.1346 275.622 103.735 275.622 114.314V186.928H304.749V122.615C304.749 118.259 304.331 114.314 303.707 110.58C309.947 102.901 318.058 98.1346 325.552 98.1346C334.5 98.1346 339.074 103.735 339.074 114.314V186.928H368.201V118.047C368.201 96.0557 354.885 83.1931 332.423 83.1931ZM146.032 83.1931C134.383 83.1931 125.229 87.3439 117.118 94.8111V57.673H71.5627V69.291H87.3741V175.303H71.5627V186.921H115.87V175.925C124.4 184.015 133.759 188.583 146.032 188.583C174.947 188.583 193.254 169.498 193.254 135.676C193.254 101.854 174.947 83.186 146.032 83.186M52.8371 69.291V57.673H7.07614V186.921H52.8442V175.303H36.8271V69.291H52.8442H52.8371Z" fill="white"/>
</g>
<defs>
<clipPath id="clip0_103_10204">
<rect width="591" height="189" fill="white"/>
</clipPath>
</defs>
</svg>
