<svg width="591" height="286" viewBox="0 0 591 286" fill="none" xmlns="http://www.w3.org/2000/svg">
<g clip-path="url(#clip0_390_51)">
<path d="M46.392 23.031C46.392 10.3735 35.9905 0 23.2988 0C10.6071 0 0 10.3735 0 23.031C0 35.6885 10.4015 46.2671 23.2988 46.2671C36.1961 46.2671 46.392 35.8936 46.392 23.031Z" fill="#F5AC00"/>
<path d="M139.587 173.648C131.058 173.648 122.946 169.71 117.118 162.448V109.335C122.946 102.073 131.058 98.1346 139.587 98.1346C153.527 98.1346 161.638 109.548 161.638 135.478C161.638 161.408 153.527 173.648 139.587 173.648ZM433.737 96.6779C446.01 96.6779 452.249 106.634 452.249 123.648H414.387C415.429 107.257 422.087 96.6779 433.737 96.6779ZM582.889 161.203C573.735 170.332 567.077 174.688 556.676 174.688C538.163 174.688 527.549 157.469 527.549 135.895C527.549 114.321 534.625 96.0628 553.762 96.0628C569.779 96.0628 576.855 104.152 578.514 124.694H588.497V95.4405C579.138 88.3834 564.369 83.2002 551.053 83.2002C519.643 83.2002 496.55 104.152 496.55 135.068C496.55 168.882 516.934 188.802 551.677 188.802C567.488 188.802 580.804 181.745 590.993 168.677L582.882 161.21L582.889 161.203ZM441.224 174.688C424.165 174.688 413.976 160.786 414.181 135.061H481.788C481.788 102.901 464.941 83.1931 435.608 83.1931C406.276 83.1931 383.601 103.94 383.601 135.478C383.601 167.016 405.233 189.007 435.814 189.007C457.035 189.007 469.514 181.95 481.993 166.188L473.882 158.721C463.062 170.756 453.908 174.695 441.224 174.695M332.423 83.1931C320.149 83.1931 309.954 88.1712 299.346 98.5448C293.731 88.3763 283.748 83.1931 270.843 83.1931C258.988 83.1931 248.587 87.9662 240.057 96.0557V84.8548H198.033V96.4729H211.76V186.928H241.298V109.13C247.126 102.073 254.195 98.1346 262.101 98.1346C271.049 98.1346 275.622 103.735 275.622 114.314V186.928H304.749V122.615C304.749 118.259 304.331 114.314 303.707 110.58C309.947 102.901 318.058 98.1346 325.552 98.1346C334.5 98.1346 339.074 103.735 339.074 114.314V186.928H368.201V118.047C368.201 96.0557 354.885 83.1931 332.423 83.1931ZM146.032 83.1931C134.383 83.1931 125.229 87.3439 117.118 94.8111V57.673H71.5627V69.291H87.3741V175.303H71.5627V186.921H115.87V175.925C124.4 184.015 133.759 188.583 146.032 188.583C174.947 188.583 193.254 169.498 193.254 135.676C193.254 101.854 174.947 83.186 146.032 83.186M52.8371 69.291V57.673H7.07614V186.921H52.8442V175.303H36.8271V69.291H52.8442H52.8371Z" fill="white"/>
</g>
<path d="M216.45 220.098C217.25 221.08 218.75 221.08 219.55 220.098L225.732 212.514C226.797 211.207 225.867 209.25 224.182 209.25H211.818C210.133 209.25 209.203 211.207 210.268 212.514L216.45 220.098Z" fill="#F5AC00"/>
<path d="M205.031 223.5H231.344V230.594H222.469V261.938H231.344V269H205.031V261.938H213.688V230.594H205.031V223.5ZM240.938 251.844C240.938 249.281 241.229 246.938 241.812 244.812C242.417 242.688 243.292 240.865 244.438 239.344C245.583 237.823 246.969 236.646 248.594 235.812C250.24 234.979 252.115 234.562 254.219 234.562C255.99 234.562 257.542 234.885 258.875 235.531C260.229 236.156 261.427 237.052 262.469 238.219V221H271.188V269H263.344L262.906 265.469C261.844 266.781 260.594 267.802 259.156 268.531C257.719 269.26 256.052 269.625 254.156 269.625C252.094 269.625 250.24 269.198 248.594 268.344C246.969 267.469 245.594 266.271 244.469 264.75C243.323 263.229 242.448 261.427 241.844 259.344C241.24 257.24 240.938 254.958 240.938 252.5V251.844ZM249.625 252.5C249.625 253.917 249.74 255.24 249.969 256.469C250.219 257.677 250.615 258.729 251.156 259.625C251.698 260.542 252.396 261.26 253.25 261.781C254.104 262.302 255.146 262.562 256.375 262.562C257.875 262.562 259.115 262.24 260.094 261.594C261.094 260.948 261.885 260.062 262.469 258.938V245.25C261.885 244.104 261.104 243.219 260.125 242.594C259.146 241.948 257.917 241.625 256.438 241.625C255.208 241.625 254.156 241.896 253.281 242.438C252.427 242.958 251.729 243.677 251.188 244.594C250.646 245.531 250.25 246.625 250 247.875C249.75 249.104 249.625 250.427 249.625 251.844V252.5ZM296.688 269.625C294.083 269.625 291.719 269.198 289.594 268.344C287.469 267.49 285.646 266.323 284.125 264.844C282.604 263.385 281.427 261.667 280.594 259.688C279.781 257.688 279.375 255.552 279.375 253.281V252.031C279.375 249.448 279.781 247.094 280.594 244.969C281.406 242.823 282.542 240.979 284 239.438C285.458 237.896 287.188 236.698 289.188 235.844C291.188 234.99 293.365 234.562 295.719 234.562C298.156 234.562 300.323 234.969 302.219 235.781C304.135 236.573 305.76 237.698 307.094 239.156C308.406 240.615 309.406 242.375 310.094 244.438C310.781 246.479 311.125 248.74 311.125 251.219V254.906H288.188V255C288.479 256.354 288.854 257.448 289.312 258.281C289.771 259.094 290.385 259.833 291.156 260.5C291.948 261.188 292.854 261.719 293.875 262.094C294.896 262.469 296.01 262.656 297.219 262.656C298.927 262.656 300.583 262.333 302.188 261.688C303.792 261.042 305.094 260.073 306.094 258.781L310.438 263.469C309.333 265.031 307.583 266.448 305.188 267.719C302.792 268.99 299.958 269.625 296.688 269.625ZM295.656 241.594C294.677 241.594 293.781 241.771 292.969 242.125C292.156 242.458 291.448 242.948 290.844 243.594C290.219 244.24 289.698 245.01 289.281 245.906C288.865 246.802 288.552 247.802 288.344 248.906H302.594V248.219C302.594 247.302 302.427 246.438 302.094 245.625C301.76 244.812 301.302 244.104 300.719 243.5C300.135 242.917 299.417 242.458 298.562 242.125C297.729 241.771 296.76 241.594 295.656 241.594ZM339.844 269C339.635 268.583 339.458 268.104 339.312 267.562C339.167 267.021 339.042 266.448 338.938 265.844C338.458 266.365 337.906 266.854 337.281 267.312C336.656 267.771 335.969 268.167 335.219 268.5C334.448 268.854 333.604 269.125 332.688 269.312C331.771 269.521 330.781 269.625 329.719 269.625C327.99 269.625 326.396 269.375 324.938 268.875C323.5 268.375 322.26 267.677 321.219 266.781C320.177 265.885 319.365 264.823 318.781 263.594C318.198 262.344 317.906 260.99 317.906 259.531C317.906 257.656 318.271 256 319 254.562C319.729 253.104 320.823 251.906 322.281 250.969C323.594 250.115 325.208 249.469 327.125 249.031C329.062 248.573 331.281 248.344 333.781 248.344H338.625V246.344C338.625 245.552 338.5 244.844 338.25 244.219C338 243.573 337.625 243.021 337.125 242.562C336.604 242.083 335.948 241.719 335.156 241.469C334.385 241.198 333.479 241.062 332.438 241.062C331.521 241.062 330.729 241.177 330.062 241.406C329.396 241.615 328.854 241.917 328.438 242.312C328.062 242.667 327.781 243.094 327.594 243.594C327.427 244.094 327.344 244.646 327.344 245.25H318.656C318.656 243.812 318.969 242.448 319.594 241.156C320.24 239.865 321.177 238.729 322.406 237.75C323.615 236.771 325.094 236 326.844 235.438C328.615 234.854 330.635 234.562 332.906 234.562C334.948 234.562 336.844 234.812 338.594 235.312C340.365 235.812 341.896 236.552 343.188 237.531C344.479 238.51 345.49 239.75 346.219 241.25C346.948 242.729 347.312 244.448 347.312 246.406V260.906C347.312 262.719 347.427 264.219 347.656 265.406C347.885 266.594 348.219 267.615 348.656 268.469V269H339.844ZM331.562 262.906C332.438 262.906 333.25 262.802 334 262.594C334.75 262.385 335.427 262.115 336.031 261.781C336.635 261.448 337.156 261.073 337.594 260.656C338.031 260.219 338.375 259.781 338.625 259.344V253.531H334.188C332.833 253.531 331.677 253.667 330.719 253.938C329.76 254.188 328.979 254.542 328.375 255C327.771 255.479 327.323 256.052 327.031 256.719C326.74 257.365 326.594 258.073 326.594 258.844C326.594 259.448 326.698 260.01 326.906 260.531C327.135 261.031 327.458 261.458 327.875 261.812C328.292 262.146 328.802 262.417 329.406 262.625C330.031 262.812 330.75 262.906 331.562 262.906ZM378.969 259.719C378.969 259.198 378.844 258.74 378.594 258.344C378.365 257.948 377.948 257.573 377.344 257.219C376.719 256.885 375.896 256.573 374.875 256.281C373.854 255.99 372.562 255.698 371 255.406C369.021 255.01 367.208 254.521 365.562 253.938C363.938 253.333 362.542 252.604 361.375 251.75C360.208 250.917 359.292 249.948 358.625 248.844C357.979 247.74 357.656 246.469 357.656 245.031C357.656 243.635 357.99 242.302 358.656 241.031C359.323 239.76 360.281 238.646 361.531 237.688C362.781 236.729 364.302 235.969 366.094 235.406C367.885 234.844 369.906 234.562 372.156 234.562C374.51 234.562 376.625 234.844 378.5 235.406C380.375 235.948 381.969 236.698 383.281 237.656C384.573 238.635 385.562 239.792 386.25 241.125C386.938 242.458 387.281 243.906 387.281 245.469H378.594C378.594 244.906 378.5 244.385 378.312 243.906C378.125 243.406 377.844 242.958 377.469 242.562C376.948 242.042 376.24 241.625 375.344 241.312C374.469 241 373.406 240.844 372.156 240.844C371.094 240.844 370.167 240.948 369.375 241.156C368.583 241.365 367.938 241.656 367.438 242.031C366.979 242.365 366.625 242.76 366.375 243.219C366.146 243.656 366.031 244.125 366.031 244.625C366.031 245.125 366.135 245.594 366.344 246.031C366.552 246.448 366.927 246.823 367.469 247.156C367.99 247.51 368.708 247.833 369.625 248.125C370.542 248.396 371.708 248.635 373.125 248.844C375.167 249.177 377.062 249.604 378.812 250.125C380.562 250.646 382.073 251.312 383.344 252.125C384.615 252.958 385.604 253.969 386.312 255.156C387.042 256.323 387.406 257.719 387.406 259.344C387.406 260.844 387.042 262.229 386.312 263.5C385.604 264.75 384.594 265.833 383.281 266.75C381.948 267.667 380.344 268.385 378.469 268.906C376.594 269.406 374.5 269.656 372.188 269.656C369.646 269.656 367.396 269.323 365.438 268.656C363.5 267.99 361.875 267.115 360.562 266.031C359.25 264.969 358.25 263.76 357.562 262.406C356.896 261.031 356.562 259.656 356.562 258.281H364.844C364.906 259.198 365.156 259.99 365.594 260.656C366.031 261.302 366.594 261.823 367.281 262.219C367.969 262.635 368.75 262.938 369.625 263.125C370.521 263.312 371.438 263.406 372.375 263.406C373.5 263.406 374.479 263.312 375.312 263.125C376.167 262.917 376.865 262.646 377.406 262.312C377.927 261.979 378.312 261.594 378.562 261.156C378.833 260.719 378.969 260.24 378.969 259.719Z" fill="white"/>
<defs>
<clipPath id="clip0_390_51">
<rect width="591" height="189" fill="white"/>
</clipPath>
</defs>
</svg>
